<svg width="1021" height="526" viewBox="0 0 1021 526" fill="none" xmlns="http://www.w3.org/2000/svg">
<circle cx="255" cy="255" r="255" fill="#77B900"/>
<rect y="158" width="1021" height="210" rx="50" fill="#0E100F"/>
<path d="M245.864 309L205.444 201.328H204.756C205.1 204.883 205.387 209.699 205.616 215.776C205.845 221.739 205.96 227.988 205.96 234.524V309H191.684V186.192H214.56L252.4 286.812H253.088L291.616 186.192H314.32V309H299.012V233.492C299.012 227.529 299.127 221.624 299.356 215.776C299.7 209.928 299.987 205.169 300.216 201.5H299.528L258.592 309H245.864ZM382.987 215.088C390.899 215.088 397.664 216.808 403.283 220.248C409.016 223.688 413.374 228.561 416.355 234.868C419.451 241.06 420.999 248.341 420.999 256.712V265.828H357.875C358.104 276.263 360.742 284.232 365.787 289.736C370.947 295.125 378.114 297.82 387.287 297.82C393.135 297.82 398.295 297.304 402.767 296.272C407.354 295.125 412.055 293.52 416.871 291.456V304.7C412.17 306.764 407.526 308.255 402.939 309.172C398.352 310.204 392.906 310.72 386.599 310.72C377.884 310.72 370.144 308.943 363.379 305.388C356.728 301.833 351.511 296.559 347.727 289.564C344.058 282.455 342.223 273.797 342.223 263.592C342.223 253.501 343.886 244.844 347.211 237.62C350.651 230.396 355.41 224.835 361.487 220.936C367.679 217.037 374.846 215.088 382.987 215.088ZM382.815 227.472C375.591 227.472 369.858 229.823 365.615 234.524C361.487 239.111 359.022 245.532 358.219 253.788H405.175C405.06 245.991 403.226 239.684 399.671 234.868C396.116 229.937 390.498 227.472 382.815 227.472ZM478.869 215.088C484.946 215.088 490.393 216.235 495.209 218.528C500.14 220.821 504.325 224.319 507.765 229.02H508.625L510.689 216.808H522.729V310.548C522.729 323.735 519.346 333.653 512.581 340.304C505.93 346.955 495.553 350.28 481.449 350.28C467.918 350.28 456.853 348.331 448.253 344.432V330.5C457.312 335.316 468.664 337.724 482.309 337.724C490.221 337.724 496.413 335.373 500.885 330.672C505.472 326.085 507.765 319.779 507.765 311.752V308.14C507.765 306.764 507.822 304.815 507.937 302.292C508.052 299.655 508.166 297.82 508.281 296.788H507.593C501.401 306.076 491.884 310.72 479.041 310.72C467.116 310.72 457.77 306.535 451.005 298.164C444.354 289.793 441.029 278.097 441.029 263.076C441.029 248.399 444.354 236.76 451.005 228.16C457.77 219.445 467.058 215.088 478.869 215.088ZM480.933 227.816C473.25 227.816 467.288 230.912 463.045 237.104C458.802 243.181 456.681 251.896 456.681 263.248C456.681 274.6 458.745 283.315 462.873 289.392C467.116 295.355 473.25 298.336 481.277 298.336C490.565 298.336 497.33 295.871 501.573 290.94C505.816 285.895 507.937 277.811 507.937 266.688V263.076C507.937 250.463 505.758 241.461 501.401 236.072C497.044 230.568 490.221 227.816 480.933 227.816ZM613.757 283.544C613.757 292.488 610.432 299.253 603.781 303.84C597.131 308.427 588.187 310.72 576.949 310.72C570.528 310.72 564.967 310.204 560.265 309.172C555.679 308.14 551.608 306.707 548.053 304.872V291.112C551.723 292.947 556.137 294.667 561.297 296.272C566.572 297.763 571.904 298.508 577.293 298.508C584.976 298.508 590.537 297.304 593.977 294.896C597.417 292.373 599.137 289.048 599.137 284.92C599.137 282.627 598.507 280.563 597.245 278.728C595.984 276.893 593.691 275.059 590.365 273.224C587.155 271.389 582.511 269.325 576.433 267.032C570.471 264.739 565.368 262.445 561.125 260.152C556.883 257.859 553.615 255.107 551.321 251.896C549.028 248.685 547.881 244.557 547.881 239.512C547.881 231.715 551.035 225.695 557.341 221.452C563.763 217.209 572.133 215.088 582.453 215.088C588.072 215.088 593.289 215.661 598.105 216.808C603.036 217.84 607.623 219.331 611.865 221.28L606.705 233.32C602.807 231.715 598.736 230.339 594.493 229.192C590.251 228.045 585.893 227.472 581.421 227.472C575.229 227.472 570.471 228.504 567.145 230.568C563.935 232.517 562.329 235.212 562.329 238.652C562.329 241.175 563.075 243.353 564.565 245.188C566.056 246.908 568.521 248.628 571.961 250.348C575.516 251.953 580.217 253.903 586.065 256.196C591.913 258.375 596.901 260.611 601.029 262.904C605.157 265.197 608.311 268.007 610.489 271.332C612.668 274.543 613.757 278.613 613.757 283.544ZM714.81 216.808V309H702.426L700.19 296.788H699.502C696.521 301.604 692.393 305.159 687.118 307.452C681.843 309.631 676.225 310.72 670.262 310.72C659.139 310.72 650.769 308.083 645.15 302.808C639.531 297.419 636.722 288.876 636.722 277.18V216.808H652.03V276.148C652.03 290.825 658.853 298.164 672.498 298.164C682.703 298.164 689.755 295.297 693.654 289.564C697.667 283.831 699.674 275.575 699.674 264.796V216.808H714.81ZM790.174 215.088C801.182 215.088 809.495 217.783 815.114 223.172C820.733 228.447 823.542 237.047 823.542 248.972V309H808.578V250.004C808.578 235.212 801.698 227.816 787.938 227.816C777.733 227.816 770.681 230.683 766.782 236.416C762.883 242.149 760.934 250.405 760.934 261.184V309H745.798V216.808H758.01L760.246 229.364H761.106C764.087 224.548 768.215 220.993 773.49 218.7C778.765 216.292 784.326 215.088 790.174 215.088Z" fill="#DAE0E3"/>
</svg>
